<svg width="1174" height="684" viewBox="0 0 1174 684" fill="none" xmlns="http://www.w3.org/2000/svg">
<path d="M-174 473.467C-61.0724 415.623 186.194 389.548 271.838 748" stroke="url(#paint0_linear_157_48)" stroke-width="0.4"/>
<path d="M423.613 35.2215C536.54 -22.6224 783.807 -48.6973 869.451 309.754C955.095 668.206 1107.5 646.198 1173 590.388" stroke="url(#paint1_linear_157_48)" stroke-width="0.4"/>
<path d="M-145.542 450.466C-86.3895 420.167 11.1455 398.944 97.7362 445.592C184.327 492.239 270.849 570.329 314.751 738.362" stroke="url(#paint2_linear_157_48)" stroke-width="0.4"/>
<path d="M-117.085 428.328C-55.2437 396.651 49.7779 375.186 136.321 437.424C222.865 499.662 312.681 572.746 357.663 729.587" stroke="url(#paint3_linear_157_48)" stroke-width="0.4"/>
<path d="M-88.627 406.688C-24.0969 373.634 88.4112 351.927 174.907 429.755C261.403 507.582 354.514 575.662 400.575 721.311" stroke="url(#paint4_linear_157_48)" stroke-width="0.4"/>
<path d="M-60.1689 385.365C7.04984 350.934 127.045 328.984 213.493 422.402C299.942 515.82 396.347 578.895 443.488 713.352" stroke="url(#paint5_linear_157_48)" stroke-width="0.4"/>
<path d="M-31.7109 364.257C38.1966 328.449 165.678 306.256 252.079 415.264C338.481 524.272 438.18 582.342 486.401 705.607" stroke="url(#paint6_linear_157_48)" stroke-width="0.4"/>
<path d="M-3.25342 343.303C69.3429 306.118 204.311 283.682 290.665 408.281C377.019 532.879 480.012 585.944 529.313 698.017" stroke="url(#paint7_linear_157_48)" stroke-width="0.4"/>
<path d="M25.2041 322.462C100.489 283.899 242.943 261.221 329.25 401.41C415.557 541.598 521.844 589.658 572.225 690.539" stroke="url(#paint8_linear_157_48)" stroke-width="0.4"/>
<path d="M53.6621 301.708C131.636 261.768 281.577 238.847 367.836 394.626C454.096 550.405 563.677 593.46 615.138 683.149" stroke="url(#paint9_linear_157_48)" stroke-width="0.4"/>
<path d="M82.1196 281.022C162.782 239.705 320.21 216.542 406.422 387.911C492.634 559.28 605.51 597.33 658.05 675.826" stroke="url(#paint10_linear_157_48)" stroke-width="0.4"/>
<path d="M110.577 260.39C193.928 217.696 358.843 194.29 445.007 381.249C531.172 568.208 647.342 601.254 700.963 668.558" stroke="url(#paint11_linear_157_48)" stroke-width="0.4"/>
<path d="M139.035 239.802C225.075 195.73 397.476 172.082 483.593 374.631C569.711 577.181 689.175 605.221 743.875 661.333" stroke="url(#paint12_linear_157_48)" stroke-width="0.4"/>
<path d="M167.493 219.25C256.221 173.801 436.109 149.91 522.179 368.05C608.249 586.189 731.008 609.225 786.787 654.145" stroke="url(#paint13_linear_157_48)" stroke-width="0.4"/>
<path d="M195.951 198.728C287.368 151.902 474.742 127.768 560.765 361.498C646.788 595.228 772.841 613.259 829.7 646.986" stroke="url(#paint14_linear_157_48)" stroke-width="0.4"/>
<path d="M224.409 178.232C318.515 130.028 513.375 105.652 599.351 354.972C685.326 604.292 814.674 617.318 872.613 639.853" stroke="url(#paint15_linear_157_48)" stroke-width="0.4"/>
<path d="M252.866 157.756C349.661 108.176 552.008 83.5567 637.936 348.467C723.865 613.377 856.506 621.399 915.525 632.741" stroke="url(#paint16_linear_157_48)" stroke-width="0.4"/>
<path d="M281.324 137.3C380.808 86.3424 590.641 61.4806 676.522 341.981C762.403 622.482 898.339 625.498 958.438 625.649" stroke="url(#paint17_linear_157_48)" stroke-width="0.4"/>
<path d="M309.782 116.859C411.954 64.5244 629.274 39.42 715.108 335.511C800.941 631.601 940.171 629.613 1001.35 618.572" stroke="url(#paint18_linear_157_48)" stroke-width="0.4"/>
<path d="M338.239 96.4331C443.101 42.7209 667.907 17.3738 753.693 329.055C839.48 640.736 982.004 633.742 1044.26 611.509" stroke="url(#paint19_linear_157_48)" stroke-width="0.4"/>
<path d="M366.697 76.0186C474.247 20.9291 706.54 -4.66058 792.279 322.611C878.018 649.882 1023.84 637.884 1087.18 604.458" stroke="url(#paint20_linear_157_48)" stroke-width="0.4"/>
<path d="M395.155 55.6153C505.394 -0.851404 745.173 -26.6837 830.865 316.178C916.557 659.039 1065.67 642.036 1130.09 597.418" stroke="url(#paint21_linear_157_48)" stroke-width="0.4"/>
<defs>
<linearGradient id="paint0_linear_157_48" x1="48.919" y1="439.246" x2="48.919" y2="748" gradientUnits="userSpaceOnUse">
<stop stop-color="#D2CAEA"/>
<stop offset="1" stop-color="#B9A6EA" stop-opacity="0.14"/>
</linearGradient>
<linearGradient id="paint1_linear_157_48" x1="798.306" y1="1" x2="798.306" y2="622.231" gradientUnits="userSpaceOnUse">
<stop stop-color="#D2CAEA"/>
<stop offset="1" stop-color="#B9A6EA" stop-opacity="0.14"/>
</linearGradient>
<linearGradient id="paint2_linear_157_48" x1="84.6044" y1="418.377" x2="84.6044" y2="738.362" gradientUnits="userSpaceOnUse">
<stop stop-color="#D2CAEA"/>
<stop offset="1" stop-color="#B9A6EA" stop-opacity="0.14"/>
</linearGradient>
<linearGradient id="paint3_linear_157_48" x1="120.289" y1="397.508" x2="120.289" y2="729.587" gradientUnits="userSpaceOnUse">
<stop stop-color="#D2CAEA"/>
<stop offset="1" stop-color="#B9A6EA" stop-opacity="0.14"/>
</linearGradient>
<linearGradient id="paint4_linear_157_48" x1="155.974" y1="376.639" x2="155.974" y2="721.311" gradientUnits="userSpaceOnUse">
<stop stop-color="#D2CAEA"/>
<stop offset="1" stop-color="#B9A6EA" stop-opacity="0.14"/>
</linearGradient>
<linearGradient id="paint5_linear_157_48" x1="191.66" y1="355.771" x2="191.66" y2="713.352" gradientUnits="userSpaceOnUse">
<stop stop-color="#D2CAEA"/>
<stop offset="1" stop-color="#B9A6EA" stop-opacity="0.14"/>
</linearGradient>
<linearGradient id="paint6_linear_157_48" x1="227.345" y1="334.901" x2="227.345" y2="705.607" gradientUnits="userSpaceOnUse">
<stop stop-color="#D2CAEA"/>
<stop offset="1" stop-color="#B9A6EA" stop-opacity="0.14"/>
</linearGradient>
<linearGradient id="paint7_linear_157_48" x1="263.03" y1="314.033" x2="263.03" y2="698.017" gradientUnits="userSpaceOnUse">
<stop stop-color="#D2CAEA"/>
<stop offset="1" stop-color="#B9A6EA" stop-opacity="0.14"/>
</linearGradient>
<linearGradient id="paint8_linear_157_48" x1="298.715" y1="293.164" x2="298.715" y2="690.539" gradientUnits="userSpaceOnUse">
<stop stop-color="#D2CAEA"/>
<stop offset="1" stop-color="#B9A6EA" stop-opacity="0.14"/>
</linearGradient>
<linearGradient id="paint9_linear_157_48" x1="334.4" y1="272.295" x2="334.4" y2="683.149" gradientUnits="userSpaceOnUse">
<stop stop-color="#D2CAEA"/>
<stop offset="1" stop-color="#B9A6EA" stop-opacity="0.14"/>
</linearGradient>
<linearGradient id="paint10_linear_157_48" x1="370.085" y1="251.426" x2="370.085" y2="675.826" gradientUnits="userSpaceOnUse">
<stop stop-color="#D2CAEA"/>
<stop offset="1" stop-color="#B9A6EA" stop-opacity="0.14"/>
</linearGradient>
<linearGradient id="paint11_linear_157_48" x1="405.77" y1="230.558" x2="405.77" y2="668.558" gradientUnits="userSpaceOnUse">
<stop stop-color="#D2CAEA"/>
<stop offset="1" stop-color="#B9A6EA" stop-opacity="0.14"/>
</linearGradient>
<linearGradient id="paint12_linear_157_48" x1="441.455" y1="209.688" x2="441.455" y2="661.333" gradientUnits="userSpaceOnUse">
<stop stop-color="#D2CAEA"/>
<stop offset="1" stop-color="#B9A6EA" stop-opacity="0.14"/>
</linearGradient>
<linearGradient id="paint13_linear_157_48" x1="477.14" y1="188.82" x2="477.14" y2="654.145" gradientUnits="userSpaceOnUse">
<stop stop-color="#D2CAEA"/>
<stop offset="1" stop-color="#B9A6EA" stop-opacity="0.14"/>
</linearGradient>
<linearGradient id="paint14_linear_157_48" x1="512.825" y1="167.951" x2="512.825" y2="646.986" gradientUnits="userSpaceOnUse">
<stop stop-color="#D2CAEA"/>
<stop offset="1" stop-color="#B9A6EA" stop-opacity="0.14"/>
</linearGradient>
<linearGradient id="paint15_linear_157_48" x1="548.511" y1="147.082" x2="548.511" y2="639.853" gradientUnits="userSpaceOnUse">
<stop stop-color="#D2CAEA"/>
<stop offset="1" stop-color="#B9A6EA" stop-opacity="0.14"/>
</linearGradient>
<linearGradient id="paint16_linear_157_48" x1="584.196" y1="126.213" x2="584.196" y2="632.741" gradientUnits="userSpaceOnUse">
<stop stop-color="#D2CAEA"/>
<stop offset="1" stop-color="#B9A6EA" stop-opacity="0.14"/>
</linearGradient>
<linearGradient id="paint17_linear_157_48" x1="619.881" y1="105.344" x2="619.881" y2="625.649" gradientUnits="userSpaceOnUse">
<stop stop-color="#D2CAEA"/>
<stop offset="1" stop-color="#B9A6EA" stop-opacity="0.14"/>
</linearGradient>
<linearGradient id="paint18_linear_157_48" x1="655.566" y1="84.4751" x2="655.566" y2="622" gradientUnits="userSpaceOnUse">
<stop stop-color="#D2CAEA"/>
<stop offset="1" stop-color="#B9A6EA" stop-opacity="0.14"/>
</linearGradient>
<linearGradient id="paint19_linear_157_48" x1="691.251" y1="63.6064" x2="691.251" y2="620.746" gradientUnits="userSpaceOnUse">
<stop stop-color="#D2CAEA"/>
<stop offset="1" stop-color="#B9A6EA" stop-opacity="0.14"/>
</linearGradient>
<linearGradient id="paint20_linear_157_48" x1="726.936" y1="42.7373" x2="726.936" y2="620.603" gradientUnits="userSpaceOnUse">
<stop stop-color="#D2CAEA"/>
<stop offset="1" stop-color="#B9A6EA" stop-opacity="0.14"/>
</linearGradient>
<linearGradient id="paint21_linear_157_48" x1="762.621" y1="21.8687" x2="762.621" y2="621.168" gradientUnits="userSpaceOnUse">
<stop stop-color="#D2CAEA"/>
<stop offset="1" stop-color="#B9A6EA" stop-opacity="0.14"/>
</linearGradient>
</defs>
</svg>
